<svg width="20" height="20" viewBox="0 0 20 20" fill="none" xmlns="http://www.w3.org/2000/svg">
<path fill-rule="evenodd" clip-rule="evenodd" d="M4.66699 4.16666C3.01014 4.16666 1.66699 5.5098 1.66699 7.16666V12.8333C1.66699 14.4902 3.01014 15.8333 4.66699 15.8333H15.3337C16.9905 15.8333 18.3337 14.4902 18.3337 12.8333V7.16666C18.3337 5.5098 16.9905 4.16666 15.3337 4.16666H4.66699ZM4.58038 6.77649C4.18078 6.54815 3.67174 6.68698 3.4434 7.08658C3.21505 7.48618 3.35388 7.99523 3.75348 8.22357L9.58682 11.5569C9.84301 11.7033 10.1575 11.7033 10.4137 11.5569L16.247 8.22357C16.6466 7.99523 16.7855 7.48618 16.5571 7.08658C16.3288 6.68698 15.8197 6.54815 15.4201 6.77649L10.0003 9.87357L4.58038 6.77649Z" fill="#E4014A"/>
</svg>
