<svg width="28" height="28" viewBox="0 0 28 28" fill="none" xmlns="http://www.w3.org/2000/svg">
<path fill-rule="evenodd" clip-rule="evenodd" d="M5.8335 4.66667C5.8335 3.37801 6.87816 2.33334 8.16683 2.33334H19.8335C21.1222 2.33334 22.1668 3.37801 22.1668 4.66667V24.5C22.1668 24.9303 21.93 25.3256 21.5507 25.5286C21.1713 25.7316 20.711 25.7094 20.353 25.4707L14.0002 21.2355L7.64731 25.4707C7.28931 25.7094 6.82901 25.7316 6.44966 25.5286C6.07031 25.3256 5.8335 24.9303 5.8335 24.5V4.66667ZM19.8335 4.66667L8.16683 4.66667V22.3201L13.353 18.8626C13.7449 18.6014 14.2554 18.6014 14.6473 18.8626L19.8335 22.3201V4.66667Z" fill="white"/>
</svg>
