<svg width="16" height="16" viewBox="0 0 16 16" fill="none" xmlns="http://www.w3.org/2000/svg">
<path d="M15.8345 6.19705C15.7803 6.03036 15.6363 5.90888 15.4629 5.88371L10.5913 5.1758L8.41263 0.761439C8.33511 0.604295 8.17505 0.504822 7.99983 0.504822C7.82457 0.504822 7.66454 0.604295 7.58698 0.761439L5.40821 5.1758L0.536753 5.88371C0.363373 5.90888 0.219274 6.03036 0.165133 6.19702C0.110961 6.36371 0.15614 6.54667 0.28164 6.66897L3.80657 10.1051L2.97457 14.957C2.94492 15.1297 3.01594 15.3042 3.15771 15.4073C3.23791 15.4655 3.3329 15.4952 3.42835 15.4952C3.50165 15.4952 3.57518 15.4777 3.64252 15.4423L7.99979 13.1515L12.3569 15.4423C12.512 15.5238 12.7 15.5103 12.8417 15.4072C12.9835 15.3042 13.0545 15.1297 13.0249 14.9569L12.1926 10.1051L15.718 6.66894C15.8434 6.54667 15.8887 6.36371 15.8345 6.19705Z" fill="#E4014A"/>
</svg>
