<svg width="35" height="35" viewBox="0 0 35 35" fill="none" xmlns="http://www.w3.org/2000/svg">
<path d="M27.8212 9.0655C24.9169 6.16124 20.1916 6.16129 17.2874 9.06554C15.3036 11.0493 14.6145 13.9728 15.4735 16.6251L7.08512 25.0135C6.95813 25.1405 6.88672 25.3124 6.88672 25.4923V29.3229C6.88672 29.6972 7.18958 30.0001 7.56385 30.0001H11.3945C11.5744 30.0001 11.7463 29.9286 11.8732 29.8017L12.8307 28.8435C12.9769 28.6974 13.0483 28.4924 13.0245 28.2867L12.9055 27.2578L14.3311 27.1235C14.6552 27.0931 14.9111 26.8372 14.9415 26.5132L15.0758 25.0875L16.1047 25.2072C16.2958 25.2329 16.4882 25.1688 16.633 25.0405C16.7772 24.9116 16.8598 24.7277 16.8598 24.5347V23.2739H18.0977C18.2775 23.2739 18.4495 23.2025 18.5764 23.0755L20.3129 21.362C22.9645 22.2216 25.8374 21.5845 27.8212 19.5994C30.7255 16.6952 30.7255 11.9698 27.8212 9.0655ZM25.9056 13.8537C25.1134 14.6459 23.8253 14.6459 23.0331 13.8537C22.2409 13.0615 22.2409 11.7734 23.0331 10.9812C23.8253 10.189 25.1134 10.189 25.9056 10.9812C26.6978 11.7734 26.6977 13.0615 25.9056 13.8537Z" fill="white"/>
</svg>
