<svg width="35" height="37" viewBox="0 0 35 37" fill="none" xmlns="http://www.w3.org/2000/svg">
<path d="M4.68351 16.0316L11.5917 14.5915C11.8709 14.5333 12.112 14.3586 12.2543 14.1114L14.765 9.75L16.6327 6.50551C17.0173 5.83738 17.9814 5.83738 18.366 6.50551L22.7444 14.1114C22.8867 14.3586 23.1278 14.5333 23.407 14.5915L30.3152 16.0316C31.0844 16.1919 31.3767 17.1359 30.8327 17.7028L25.1489 23.627C24.9244 23.8609 24.8273 24.1893 24.8884 24.5077L26.2242 31.469C26.3818 32.2903 25.5216 32.9307 24.78 32.5442L17.9615 28.9908C17.6719 28.8399 17.3268 28.8399 17.0372 28.9908L10.2187 32.5442C9.47709 32.9307 8.61689 32.2903 8.77449 31.469L10.1103 24.5077C10.1714 24.1893 10.0743 23.8609 9.84977 23.627L4.16599 17.7028C3.62203 17.1359 3.91435 16.1919 4.68351 16.0316Z" fill="white"/>
</svg>
