<svg width="24" height="24" viewBox="0 0 24 24" fill="none" xmlns="http://www.w3.org/2000/svg">
<path d="M10.295 10.8643C9.7576 10.8643 9.33325 11.333 9.33325 11.905C9.33325 12.4768 9.76698 12.9456 10.295 12.9456C10.8324 12.9456 11.2567 12.4768 11.2567 11.905C11.2662 11.333 10.8324 10.8643 10.295 10.8643ZM13.7364 10.8643C13.199 10.8643 12.7747 11.333 12.7747 11.905C12.7747 12.4768 13.2084 12.9456 13.7364 12.9456C14.2739 12.9456 14.6982 12.4768 14.6982 11.905C14.6982 11.333 14.2739 10.8643 13.7364 10.8643Z" fill="#E4014A"/>
<path d="M18.3172 3H5.68285C4.61743 3 3.75 3.8625 3.75 4.93125V17.6063C3.75 18.675 4.61743 19.5375 5.68285 19.5375H16.3748L15.8752 17.8031L17.082 18.9188L18.2228 19.9688L20.25 21.75V4.93125C20.25 3.8625 19.3825 3 18.3172 3ZM14.6777 15.2438C14.6777 15.2438 14.3383 14.8406 14.0555 14.4844C15.2906 14.1375 15.762 13.3688 15.762 13.3688C15.3755 13.6219 15.0077 13.8 14.6777 13.9219C14.2063 14.1187 13.7537 14.25 13.3106 14.325C12.4054 14.4938 11.5757 14.4469 10.8685 14.3156C10.3312 14.2125 9.86917 14.0625 9.48255 13.9125C9.26573 13.8281 9.03 13.725 8.79428 13.5938C8.766 13.575 8.73773 13.5656 8.70945 13.5469C8.69055 13.5375 8.68117 13.5281 8.67172 13.5187C8.502 13.425 8.40773 13.3594 8.40773 13.3594C8.40773 13.3594 8.86028 14.1094 10.0577 14.4656C9.77483 14.8219 9.426 15.2438 9.426 15.2438C7.34228 15.1781 6.55028 13.8187 6.55028 13.8187C6.55028 10.8 7.908 8.35312 7.908 8.35312C9.26572 7.34062 10.5575 7.36875 10.5575 7.36875L10.6517 7.48125C8.95455 7.96875 8.172 8.70938 8.172 8.70938C8.172 8.70938 8.37945 8.59688 8.72828 8.4375C9.73717 7.99687 10.5385 7.875 10.8685 7.84687C10.9252 7.8375 10.9723 7.82812 11.0288 7.82812C11.604 7.75313 12.2545 7.73438 12.9335 7.80938C13.8292 7.9125 14.7908 8.175 15.7715 8.70938C15.7715 8.70938 15.0266 8.00625 13.4237 7.51875L13.5557 7.36875C13.5557 7.36875 14.8474 7.34062 16.2052 8.35312C16.2052 8.35312 17.5628 10.8 17.5628 13.8187C17.5628 13.8187 16.7614 15.1781 14.6777 15.2438Z" fill="#E4014A"/>
</svg>
