<svg width="24" height="14" viewBox="0 0 24 14" fill="none" xmlns="http://www.w3.org/2000/svg">
<path d="M20.1139 8.8333C20.8594 9.60543 21.6482 10.332 22.3175 11.184C22.614 11.5608 22.8935 11.9505 23.1062 12.3888C23.41 13.0137 23.1357 13.6991 22.6081 13.7362L19.331 13.7355C18.4847 13.8098 17.8111 13.4478 17.2433 12.8343C16.79 12.3454 16.3695 11.8232 15.9329 11.3175C15.7545 11.1101 15.5667 10.9147 15.3428 10.761C14.896 10.4528 14.5079 10.5472 14.2519 11.0421C13.9912 11.5455 13.9315 12.1035 13.9067 12.6639C13.871 13.4832 13.638 13.6973 12.8626 13.7359C11.206 13.8181 9.63405 13.5516 8.17305 12.666C6.88425 11.8849 5.8867 10.7825 5.01744 9.53425C3.32474 7.10102 2.02838 4.43042 0.863594 1.68315C0.60144 1.06443 0.793229 0.733382 1.43698 0.72055C2.50654 0.698687 3.5761 0.701462 4.64565 0.719507C5.08093 0.72679 5.36893 0.990865 5.53618 1.42637C6.11416 2.9341 6.82272 4.3687 7.7106 5.69913C7.94722 6.05342 8.1888 6.40667 8.53275 6.65687C8.9124 6.9331 9.20175 6.84183 9.38077 6.39243C9.4953 6.10683 9.54472 5.8015 9.56955 5.49543C9.65467 4.44708 9.6648 3.3991 9.51757 2.35496C9.42592 1.70154 9.07935 1.27958 8.46502 1.15605C8.15212 1.09323 8.19795 0.970398 8.35012 0.780925C8.61427 0.453348 8.8617 0.250697 9.35617 0.250697L13.0587 0.25C13.6423 0.371455 13.7731 0.64906 13.8523 1.27229L13.8556 5.63492C13.8487 5.87605 13.9699 6.59095 14.3783 6.74883C14.7056 6.86335 14.9216 6.58502 15.1173 6.36535C16.0052 5.36635 16.6378 4.1872 17.2044 2.96673C17.4544 2.42853 17.6701 1.87158 17.8795 1.31359C18.0353 0.900993 18.2776 0.69799 18.7168 0.704927L22.2821 0.709442C22.3872 0.709442 22.4939 0.710485 22.5979 0.729565C23.1988 0.838533 23.3635 1.11267 23.1775 1.73417C22.885 2.71068 22.3165 3.52405 21.7608 4.33952C21.1651 5.2126 20.5299 6.05515 19.9401 6.93205C19.3981 7.73365 19.441 8.13723 20.1139 8.8333Z" fill="#E4014A"/>
</svg>
