<svg width="20" height="20" viewBox="0 0 20 20" fill="none" xmlns="http://www.w3.org/2000/svg">
<path fill-rule="evenodd" clip-rule="evenodd" d="M5.74944 4.18451C4.66315 4.36918 3.81699 5.04116 3.10724 6.28277C2.53623 7.28173 2.10835 8.45685 1.87333 9.67155C1.73404 10.3915 1.68883 10.8725 1.67095 11.8246C1.633 13.8433 1.8672 15.0087 2.4091 15.4975C2.78636 15.8378 3.38158 15.9324 3.81858 15.7215C4.36214 15.4593 5.2482 14.6326 6.21974 13.4812C6.64864 12.9729 6.78981 12.8493 7.05238 12.7523C7.20271 12.6968 7.42968 12.6922 10.0003 12.6922C12.1373 12.6922 12.8165 12.7022 12.9193 12.7351C13.1103 12.7964 13.3808 12.9979 13.547 13.2027C14.5085 14.3875 15.5355 15.3799 16.1158 15.6848C16.5968 15.9376 17.1865 15.8627 17.5915 15.4975C18.1321 15.0098 18.3685 13.8261 18.3295 11.8022C18.3105 10.8168 18.2636 10.3622 18.094 9.51843C17.8043 8.07736 17.1843 6.59259 16.4664 5.62119C15.502 4.31625 14.1787 3.87496 12.6713 4.35569C12.3115 4.47047 11.7994 4.72592 11.4548 4.96266C10.9113 5.33598 10.76 5.37442 9.90257 5.35733C9.15673 5.34247 9.0664 5.31737 8.58848 4.99201C7.79835 4.45406 7.0876 4.20345 6.28691 4.18049C6.04505 4.17356 5.80319 4.17538 5.74944 4.18451ZM13.5249 6.20657C13.8677 6.32966 14.1235 6.71406 14.1176 7.09717C14.1137 7.35152 14.0511 7.51144 13.8783 7.70905C13.6905 7.92375 13.4698 8.01777 13.1949 8.00009C12.8456 7.97761 12.5704 7.78549 12.4389 7.47234C12.2802 7.09411 12.3425 6.73552 12.6173 6.44588C12.8774 6.17186 13.195 6.08811 13.5249 6.20657ZM6.54749 6.84138C6.62811 6.86025 6.7344 6.89266 6.78365 6.91336L6.87323 6.95104V7.54755V8.14408H7.42457H7.97594L8.06399 8.33376C8.14233 8.50251 8.15018 8.55077 8.13496 8.77141C8.12555 8.90778 8.09066 9.08487 8.05744 9.16491L7.99701 9.31045L7.41884 9.3108L6.84066 9.31114V9.89388C6.84066 10.5676 6.85668 10.5343 6.48433 10.6348C6.24238 10.7001 6 10.6676 5.81084 10.5444L5.70058 10.4726V9.89185V9.31114H5.14954H4.59846L4.53878 9.14809C4.45872 8.92944 4.45872 8.52578 4.53878 8.30713L4.59846 8.14408H5.18211H5.76573V7.52891V6.9137L5.87159 6.87896C6.11329 6.7996 6.31994 6.78814 6.54749 6.84138ZM15.7841 7.61809C16.1398 7.74581 16.4213 8.20559 16.3726 8.57953C16.3301 8.90631 16.1355 9.19725 15.8693 9.33194C15.7123 9.41144 15.4105 9.43351 15.2257 9.379C15.0381 9.32367 14.7847 9.08627 14.6876 8.8749C14.5286 8.52877 14.6242 8.0662 14.9096 7.80155C15.1592 7.56993 15.4691 7.50495 15.7841 7.61809ZM13.6026 8.86337C14.0467 9.06825 14.2435 9.64615 14.0275 10.1113C13.8706 10.4493 13.6007 10.6272 13.2413 10.6295C12.8923 10.6318 12.6146 10.4558 12.461 10.1349C12.3103 9.82022 12.3188 9.53236 12.4876 9.23597C12.7209 8.82623 13.1855 8.67101 13.6026 8.86337Z" fill="#E4014A"/>
</svg>
