<svg width="20" height="20" viewBox="0 0 20 20" fill="none" xmlns="http://www.w3.org/2000/svg">
<path fill-rule="evenodd" clip-rule="evenodd" d="M8.43783 2.70832C8.43783 2.13303 8.9042 1.66666 9.47949 1.66666H10.5212C11.0965 1.66666 11.5628 2.13303 11.5628 2.70832L11.6879 3.58367C11.7998 4.36744 12.7107 4.74473 13.3441 4.26969L14.0515 3.73915C14.4583 3.33236 15.1178 3.33236 15.5246 3.73915L16.2612 4.47572C16.668 4.88252 16.668 5.54206 16.2612 5.94886L15.7306 6.65624C15.2556 7.28962 15.6329 8.20047 16.4166 8.31244L17.292 8.43749C17.8673 8.43749 18.3337 8.90386 18.3337 9.47916V10.5208C18.3337 11.0961 17.8673 11.5625 17.292 11.5625L16.4166 11.6875C15.6329 11.7995 15.2556 12.7104 15.7306 13.3437L16.2612 14.0511C16.668 14.4579 16.668 15.1175 16.2612 15.5243L15.5246 16.2608C15.1178 16.6676 14.4583 16.6676 14.0515 16.2608L13.3441 15.7303C12.7107 15.2553 11.7998 15.6325 11.6879 16.4163L11.5628 17.2917C11.5628 17.867 11.0965 18.3333 10.5212 18.3333H9.47949C8.9042 18.3333 8.43783 17.867 8.43783 17.2917L8.31278 16.4163C8.20081 15.6325 7.28996 15.2553 6.65658 15.7303L5.94919 16.2608C5.5424 16.6676 4.88285 16.6676 4.47605 16.2608L3.73948 15.5243C3.33269 15.1175 3.33269 14.4579 3.73948 14.0511L4.27003 13.3437C4.74506 12.7104 4.36777 11.7995 3.58401 11.6875L2.70866 11.5625C2.13336 11.5625 1.66699 11.0961 1.66699 10.5208V9.47916C1.66699 8.90386 2.13336 8.43749 2.70866 8.43749L3.584 8.31244C4.36777 8.20047 4.74506 7.28962 4.27002 6.65624L3.73949 5.94886C3.33269 5.54206 3.33269 4.88252 3.73949 4.47572L4.47605 3.73915C4.88285 3.33236 5.5424 3.33236 5.94919 3.73915L6.65658 4.26969C7.28996 4.74472 8.20081 4.36744 8.31278 3.58367L8.43783 2.70832ZM10.0003 13.3333C11.8413 13.3333 13.3337 11.8409 13.3337 9.99999C13.3337 8.15904 11.8413 6.66666 10.0003 6.66666C8.15938 6.66666 6.66699 8.15904 6.66699 9.99999C6.66699 11.8409 8.15938 13.3333 10.0003 13.3333Z" fill="#E4014A"/>
<circle cx="10.0007" cy="9.99998" r="1.66667" fill="#E4014A"/>
</svg>
