<svg width="25" height="24" viewBox="0 0 25 24" fill="none" xmlns="http://www.w3.org/2000/svg">
<path d="M16 13C17.3808 13 18.5 11.8807 18.5 10.5C18.5 9.11929 17.3808 8 16 8C14.6193 8 13.5 9.11929 13.5 10.5C13.5 11.8807 14.6193 13 16 13Z" fill="white"/>
<path d="M9.80584 18.0636C9.55787 18.174 9.27714 18.217 9.00045 18.1868C8.72378 18.1567 8.46406 18.0551 8.25539 17.8951C8.16223 17.8301 8.04371 17.7989 7.92455 17.8077C7.80537 17.8166 7.69473 17.8649 7.61572 17.9425C7.5367 18.0202 7.49539 18.1212 7.50041 18.2246C7.50542 18.3279 7.55638 18.4256 7.64263 18.4972C7.914 18.7046 8.23766 18.854 8.58773 18.9337C8.93782 19.0135 9.30461 19.0214 9.65881 18.9566C10.013 18.8919 10.3448 18.7564 10.6276 18.561C10.9105 18.3656 11.1366 18.1156 11.2878 17.8311C11.439 17.5467 11.5112 17.2355 11.4986 16.9226C11.486 16.6097 11.3889 16.3037 11.2151 16.029C11.0414 15.7543 10.7957 15.5186 10.4978 15.3407C10.1999 15.1628 9.85802 15.0476 9.49947 15.0044C9.43895 14.9965 9.37721 14.9993 9.31796 15.0125C9.2587 15.0257 9.20313 15.0492 9.15459 15.0814C9.10605 15.1136 9.06554 15.1539 9.03545 15.2C9.00538 15.2461 8.98637 15.297 8.97955 15.3497C8.96374 15.455 8.99688 15.5615 9.07171 15.6459C9.14655 15.7302 9.25697 15.7853 9.37878 15.7993C9.67437 15.8334 9.94954 15.9485 10.1638 16.1279C10.378 16.3073 10.52 16.5415 10.5689 16.7959C10.6177 17.0503 10.5709 17.3116 10.4352 17.5413C10.2995 17.7709 10.0821 17.9569 9.81513 18.0717L9.80584 18.0636Z" fill="white"/>
<path d="M13.0022 2C10.2912 1.99765 7.68423 3.04364 5.72687 4.91912C3.76952 6.79461 2.6134 9.35424 2.50044 12.0625C2.49777 12.122 2.50725 12.1813 2.52832 12.237C2.54938 12.2927 2.58159 12.3434 2.62296 12.3862C2.68587 12.4459 2.76506 12.4854 2.8505 12.5C3.14805 12.5962 5.47596 13.6025 6.83244 14.25C6.90672 14.2819 6.98831 14.2932 7.06846 14.2824C7.14861 14.2715 7.22433 14.2392 7.28751 14.1887C7.62848 13.8917 8.02591 13.6665 8.45599 13.5267C8.88607 13.3869 9.33995 13.3353 9.79044 13.375C9.86483 13.3833 9.9401 13.3723 10.009 13.3432C10.078 13.3141 10.1383 13.2678 10.1843 13.2087L12.0308 10.7937C12.0975 10.7063 12.1287 10.597 12.1183 10.4875C12.1183 10.4175 12.1183 10.3562 12.1183 10.295C12.1236 9.52896 12.3522 8.78107 12.7762 8.14299C13.2002 7.50491 13.8011 7.00435 14.5054 6.70262C15.2096 6.4009 15.9866 6.31113 16.7411 6.44433C17.4956 6.57752 18.195 6.92787 18.7533 7.45247C19.3116 7.97707 19.7048 8.65311 19.8846 9.39779C20.0644 10.1424 20.0231 10.9234 19.7657 11.6449C19.5081 12.3664 19.0458 12.9972 18.4352 13.4599C17.8246 13.9226 17.0922 14.1972 16.3278 14.25C16.2382 14.2562 16.1527 14.2898 16.0828 14.3462L13.151 16.7524C13.1044 16.7912 13.0663 16.8392 13.0392 16.8935C13.012 16.9477 12.9965 17.0069 12.9935 17.0674C12.9443 17.9605 12.5551 18.8007 11.9057 19.4158C11.2564 20.0309 10.3961 20.3741 9.50165 20.375C8.73635 20.3811 7.99078 20.1325 7.38235 19.6683C6.77392 19.2042 6.33723 18.5508 6.14107 17.8113C6.12523 17.7511 6.09675 17.695 6.05751 17.6467C6.01828 17.5984 5.96919 17.5591 5.91353 17.5312L4.25075 16.7175C4.16781 16.6747 4.0734 16.6597 3.98129 16.6745C3.88917 16.6891 3.80417 16.733 3.7387 16.7994C3.67323 16.8658 3.63071 16.9515 3.61734 17.0437C3.60397 17.1361 3.62046 17.2302 3.66439 17.3125C4.51892 18.9692 5.79918 20.3687 7.37365 21.3671C8.94813 22.3655 10.7601 22.9267 12.6233 22.9933C14.4865 23.0599 16.3338 22.6293 17.9756 21.7458C19.6173 20.8622 20.9942 19.5577 21.9648 17.9661C22.9354 16.3745 23.4646 14.5532 23.4983 12.6895C23.5319 10.8257 23.0687 8.98653 22.1562 7.36096C21.2437 5.73539 19.9148 4.382 18.306 3.43985C16.6973 2.49769 14.8667 2.00072 13.0022 2Z" fill="white"/>
</svg>
