<svg width="35" height="35" viewBox="0 0 35 35" fill="none" xmlns="http://www.w3.org/2000/svg">
<path d="M17.5527 5C24.9677 5 31 10.4669 31 17.1875C31 20.0265 29.9062 22.7774 27.9156 24.9578C27.5216 26.6265 27.9998 28.3943 29.1863 29.613C29.6824 30.1226 29.3316 31 28.627 31C26.3729 31 24.1999 30.0931 22.5855 28.4934C20.9879 29.0791 19.2978 29.375 17.5527 29.375C10.1378 29.375 4 23.9081 4 17.1875C4 10.4669 10.1378 5 17.5527 5ZM23.7755 19.625C25.084 19.625 26.1484 18.5316 26.1484 17.1875C26.1484 15.8434 25.084 14.75 23.7755 14.75C22.4668 14.75 21.4023 15.8434 21.4023 17.1875C21.4023 18.5316 22.4668 19.625 23.7755 19.625ZM17.4473 19.625C18.7558 19.625 19.8203 18.5316 19.8203 17.1875C19.8203 15.8434 18.7558 14.75 17.4473 14.75C16.1387 14.75 15.0742 15.8434 15.0742 17.1875C15.0742 18.5316 16.1387 19.625 17.4473 19.625ZM11.1191 19.625C12.4277 19.625 13.4922 18.5316 13.4922 17.1875C13.4922 15.8434 12.4277 14.75 11.1191 14.75C9.81059 14.75 8.74609 15.8434 8.74609 17.1875C8.74609 18.5316 9.81059 19.625 11.1191 19.625Z" fill="white"/>
</svg>
