<svg width="28" height="28" viewBox="0 0 28 28" fill="none" xmlns="http://www.w3.org/2000/svg">
<path fill-rule="evenodd" clip-rule="evenodd" d="M11.6667 4.66634C7.80068 4.66634 4.66668 7.80035 4.66668 11.6663C4.66668 15.5323 7.80068 18.6663 11.6667 18.6663C15.5327 18.6663 18.6667 15.5323 18.6667 11.6663C18.6667 7.80035 15.5327 4.66634 11.6667 4.66634ZM2.33334 11.6663C2.33334 6.51168 6.51202 2.33301 11.6667 2.33301C16.8213 2.33301 21 6.51168 21 11.6663C21 16.821 16.8213 20.9997 11.6667 20.9997C6.51202 20.9997 2.33334 16.821 2.33334 11.6663Z" fill="white"/>
<path fill-rule="evenodd" clip-rule="evenodd" d="M16.6751 16.6747C17.1307 16.2191 17.8694 16.2191 18.325 16.6747L25.325 23.6747C25.7806 24.1303 25.7806 24.869 25.325 25.3246C24.8694 25.7802 24.1307 25.7802 23.6751 25.3246L16.6751 18.3246C16.2194 17.869 16.2194 17.1303 16.6751 16.6747Z" fill="white"/>
</svg>
