<svg width="28" height="28" viewBox="0 0 28 28" fill="none" xmlns="http://www.w3.org/2000/svg">
<path d="M7 11.6667L10.5 5.83334" stroke="white" stroke-width="2" stroke-linecap="round" stroke-linejoin="round"/>
<path fill-rule="evenodd" clip-rule="evenodd" d="M4.57788 20.6005L2.60375 11.7169C2.46497 11.0924 2.94019 10.5 3.57993 10.5H24.42C25.0598 10.5 25.535 11.0924 25.3962 11.7169L23.4221 20.6005C23.2187 21.5156 22.4071 22.1667 21.4697 22.1667H6.53026C5.59286 22.1667 4.78123 21.5156 4.57788 20.6005ZM9.29861 13.717C9.14234 13.0919 8.50892 12.7119 7.88382 12.8682C7.25873 13.0244 6.87867 13.6579 7.03495 14.2829L8.20161 18.9496C8.35789 19.5747 8.99131 19.9548 9.6164 19.7985C10.2415 19.6422 10.6216 19.0088 10.4653 18.3837L9.29861 13.717ZM20.1164 12.8682C20.7415 13.0244 21.1216 13.6579 20.9653 14.2829L19.7986 18.9496C19.6423 19.5747 19.0089 19.9548 18.3838 19.7985C17.7587 19.6422 17.3787 19.0088 17.5349 18.3837L18.7016 13.717C18.8579 13.0919 19.4913 12.7119 20.1164 12.8682ZM15.1668 14C15.1668 13.3557 14.6445 12.8333 14.0001 12.8333C13.3558 12.8333 12.8335 13.3557 12.8335 14V18.6667C12.8335 19.311 13.3558 19.8333 14.0001 19.8333C14.6445 19.8333 15.1668 19.311 15.1668 18.6667V14Z" fill="white"/>
<path d="M21 11.6667L17.5 5.83334" stroke="white" stroke-width="2" stroke-linecap="round" stroke-linejoin="round"/>
</svg>
