<svg width="24" height="25" viewBox="0 0 24 25" fill="none" xmlns="http://www.w3.org/2000/svg">
<path d="M12.0355 3.92856C17.12 3.92856 21.2565 7.67731 21.2565 12.2857C21.2565 14.2324 20.5064 16.1188 19.1414 17.6139C18.8713 18.7581 19.1992 19.9704 20.0128 20.806C20.353 21.1555 20.1124 21.7571 19.6293 21.7571C18.0836 21.7571 16.5935 21.1353 15.4865 20.0383C14.391 20.44 13.2321 20.6428 12.0355 20.6428C6.95094 20.6428 2.74219 16.8941 2.74219 12.2857C2.74219 7.67731 6.95094 3.92856 12.0355 3.92856ZM16.3025 13.9571C17.1998 13.9571 17.9297 13.2074 17.9297 12.2857C17.9297 11.364 17.1998 10.6143 16.3025 10.6143C15.4051 10.6143 14.6752 11.364 14.6752 12.2857C14.6752 13.2074 15.4051 13.9571 16.3025 13.9571ZM11.9632 13.9571C12.8605 13.9571 13.5904 13.2074 13.5904 12.2857C13.5904 11.364 12.8605 10.6143 11.9632 10.6143C11.0659 10.6143 10.3359 11.364 10.3359 12.2857C10.3359 13.2074 11.0659 13.9571 11.9632 13.9571ZM7.62388 13.9571C8.52118 13.9571 9.25112 13.2074 9.25112 12.2857C9.25112 11.364 8.52118 10.6143 7.62388 10.6143C6.72659 10.6143 5.99665 11.364 5.99665 12.2857C5.99665 13.2074 6.72659 13.9571 7.62388 13.9571Z" fill="#E4014A"/>
</svg>
